<svg viewBox="0 0 256 256">
    <g stroke="currentColor" stroke-width="5" fill="none">
        <g fill="currentColor" transform="translate(21.333333, 21.333333)">
            <path d="M192,85.3333333 L213.333333,85.3333333 L213.333333,128 L192,128 L192,85.3333333 Z M160,53.3333333 L181.333333,53.3333333 L181.333333,160 L160,160 L160,53.3333333 Z M128,64 L149.333333,64 L149.333333,149.333333 L128,149.333333 L128,64 Z M96,32 L117.333333,32 L117.333333,181.333333 L96,181.333333 L96,32 Z M0,85.3333333 L21.3333333,85.3333333 L21.3333333,128 L0,128 L0,85.3333333 Z M32,53.3333333 L53.3333333,53.3333333 L53.3333333,160 L32,160 L32,53.3333333 Z M64,0 L85.3333333,0 L85.3333333,213.333333 L64,213.333333 L64,0 Z" id="Combined-Shape"></path>
        </g>
    </g>
</svg>
