<svg viewBox="0 0 256 256" stroke="currentColor" stroke-width="5" fill="none">
	<path d="M213.333333,106.666667 L234.666666333,106.666667 L234.666666333,149.333333 L213.333333,149.333333 L213.333333,106.666667 Z M181.333333,74.6666667 L202.666666333,74.6666667 L202.666666333,181.333333 L181.333333,181.333333 L181.333333,74.6666667 Z M149.333333,85.3333333 L170.666666333,85.3333333 L170.666666333,170.666667 L149.333333,170.666667 L149.333333,85.3333333 Z M117.333333,53.3333333 L138.666666333,53.3333333 L138.666666333,202.666667 L117.333333,202.666667 L117.333333,53.3333333 Z M21.3333333,106.666667 L42.6666666333,106.666667 L42.6666666333,149.333333 L21.3333333,149.333333 L21.3333333,106.666667 Z M53.3333333,74.6666667 L74.6666666333,74.6666667 L74.6666666333,181.333333 L53.3333333,181.333333 L53.3333333,74.6666667 Z M85.3333333,21.3333333 L106.666666633,21.3333333 L106.666666633,234.666667 L85.3333333,234.666667 L85.3333333,21.3333333 Z" />
</svg>
